<?xml version="1.0" ?><!DOCTYPE svg  PUBLIC '-//W3C//DTD SVG 1.1//EN'  'http://www.w3.org/Graphics/SVG/1.1/DTD/svg11.dtd'><svg height="512px" style="enable-background:new 0 0 512 512;" version="1.1" viewBox="0 0 512 512" width="512px" xml:space="preserve" xmlns="http://www.w3.org/2000/svg" xmlns:xlink="http://www.w3.org/1999/xlink"><g id="_x32_5-swarm"><g><g><g><path d="M263.301,197.434c-0.656-0.656-2.654-5.918-3.311-7.237      c-66.9-137.419-216.414-132.838-240-71.024C1.616,166.51,80.983,278.96,263.301,197.434L263.301,197.434z M263.301,197.434" style="fill:#FFC107;"/><path d="M293.459,184.933C396.387,138.907,381.977,59.36,355.08,48.831      c-35.436-13.819-100.996,39.478-63.619,132.157C292.117,181.644,293.459,184.275,293.459,184.933L293.459,184.933z       M293.459,184.933" style="fill:#FFC107;"/><path d="M195.098,308.804c-19.032,29.604-33.47,59.84-43.314,81.554      c-0.618,1.313-0.618,1.973-1.274,3.292c-3.283,8.549-6.601,15.13-8.532,21.055c-2.625,6.544,0.657,14.472,7.866,17.072      c5.223,2.007,12.44,4.609,20.999,7.898c1.285,0.656,1.969,0.656,3.282,1.285c22.959,7.893,54.432,16.449,88.557,22.368      c-20.344-19.707-36.752-43.425-48.564-69.712C202.287,366.699,195.742,337.751,195.098,308.804L195.098,308.804z       M195.098,308.804" style="fill:#FFC107;"/><path d="M482.936,272.646c-15.721-34.838-43.93-60.467-77.371-72.315c-3.279-1.28-6.561-1.97-10.49-1.97      c-17.063,0-34.098,14.476-35.41,32.237c-2.625,30.234,3.283,60.469,16.379,90.078c13.098,28.947,31.465,53.261,54.459,71.653      c5.908,4.608,13.781,6.58,20.973,6.58c13.801,0,26.896-7.207,32.146-19.705C498.021,346.933,498.715,308.144,482.936,272.646      L482.936,272.646z M482.936,272.646" style="fill:#FFC107;"/></g><path d="M337.361,339.072c-16.377-36.85-22.939-74.319-19.66-111.163     c0.629-10.496,3.939-20.364,8.504-28.919c-0.627,0-1.967,0.625-2.625,0.625c-1.313,0.66-3.279,0.66-4.594,1.319     c-9.844,2.63-19.65,7.239-28.18,11.841c-4.566,2.664-8.502,5.294-13.098,7.924c-22.275,15.134-40.65,41.421-43.275,69.055     c-2.652,29.574,2.625,59.842,15.057,88.766c12.469,28.286,30.816,51.316,53.127,69.049     c13.771,11.186,38.027,17.767,58.398,17.767c22.275,0,45.863-8.555,64.893-20.4c0,0,0.658,0,0.658-0.625     c1.285-0.658,2.625-2.005,3.936-2.667c0.629-0.657,1.285-1.282,1.941-1.282c-10.5-2.663-19.66-7.233-27.525-13.186     C376.072,404.832,353.139,375.227,337.361,339.072L337.361,339.072z M337.361,339.072" style="fill:#FFC107;"/></g></g></g><g id="Layer_1"/></svg>